<?xml version="1.0" encoding="utf-8"?>
<!-- Generator: Adobe Illustrator 19.0.0, SVG Export Plug-In . SVG Version: 6.00 Build 0)  -->
<svg version="1.1" xmlns="http://www.w3.org/2000/svg" xmlns:xlink="http://www.w3.org/1999/xlink" x="0px" y="0px"
	 viewBox="0 0 812.4 257.4" style="enable-background:new 0 0 812.4 257.4;" xml:space="preserve">
<style type="text/css">
	.st0{display:none;}
	.st1{display:inline;fill:#0F1822;}
	.st2{display:inline;}
	.st3{fill:#B9AD9A;}
	.st4{fill:#8C806E;}
	.st5{fill:#FFFFFF;}
	.st6{display:inline;fill:none;}
	.st7{display:inline;fill:#FFFFFF;}
	.st8{font-family:'CenturyGothic-Bold';}
	.st9{font-size:24.902px;}
</style>
<g id="Layer_2" class="st0">
	<rect id="XMLID_1_" x="-193.8" y="-73.7" class="st1" width="1200" height="400"/>
</g>
<g id="Layer_1" class="st0">
	<g id="XMLID_39_" class="st2">
		<path id="XMLID_410_" class="st3" d="M242,53.7c0,0,8.2,7.2,12.4,4.1c0,0,1.7-0.5,0,0.8c-1.7,1.2-51.6,36.4-59.6,60.9
			c-8,24.5-15.3,28-15.3,28s-6.8,14.4-15.7,16.9c-8.9,2.4-29.1,6.3-33.2,12.2c0,0,3.5-7,7.3-8.7c3.8-1.7,20.9-11.7,24-12.4
			c3.1-0.7,8.2-10.3,8.2-10.3s-5,1.9-8.2,1.9c-3.1,0-12.4,0.2-15.3,3.3c0,0,2.3-9.6,19.7-17.7c17.4-8.2,19.3-17.6,19.3-17.6
			s18.8-31.6,52.9-49.6C238.4,65.6,247,62.2,242,53.7z M240.8,50.3c0,0-5.2-1.2-7.5-7.3c0,0-7,14.6-18.1,3.7c0,0-1.2,2.1,1,4.1
			c2.3,2,9.7,9.5,17.2-0.8C233.5,49.9,239.2,51,240.8,50.3z M208.3,16c0,0,5.4,11,4.9,15.7c-0.5,4.7-2.1,9.6-3.1,11.3
			c-1,1.7-3.8,9.7-1.7,12.2c0,0-1-2.7,4.9-8.2c0,0,2.4-4.2,2.7-9.4c0.3-5.2,4.2,0.9,4.2,0.9s-2.3-4.7-1.4-7.5
			C219.6,28.2,216.6,20.9,208.3,16z M192.8,50.3c0,0-1.6-9.3,5.9-14.7c0,0-6.7-3.4-6-9.9c0,0-2.1,1.6-2.7,4
			c-0.5,2.4-12.9,17.4-37.2,14.3c0,0-4.2,0-5.6,1.6c0,0,7.5-0.3,8.2,2.3c0.7,2.6-9.2,9.6-12.2,11.3c-3,1.7-13,7.3-19,17
			c0,0,6.6-6.8,9.6-7.8c3-1,16.9-11.7,18.3-13.2c1.4-1.5,4.7-1.8,1.6,6.5c0,0,2.3-0.9,3.5-4.2c1.2-3.3,1.9-3.7,3.3-3.9
			c1.4-0.1,11.5-2.6,22.6-10.7c0,0,5.2-1.2,5.7,0.9C189.3,45.9,192.8,50.3,192.8,50.3z M190,71.7c-6.9,13.7-4.2,18.1-4.2,18.1
			c0.7-5,4-9.6,4-9.6c9.9-17.2,0-25,0-25C194.7,64.3,190,71.7,190,71.7z M176.6,81.4c-2.4,6.8,1.6,11.3,1.6,11.3
			c-1.6-3.3,1-10.8,1-10.8c6.1-15.7,0-23,0-23C182.1,70.6,179,74.6,176.6,81.4z M204.1,19.8c-2.3,1.2-5.4,7.5-5.4,7.5
			c-2.1-18.1-20.9-10.6-29.2-8.4c-8.3,2.3-17.7,9.4-21.6,12.2c-3.8,2.8-2.8,4.5-2.8,4.5l-10.8,4.6c-1,13.6,9.9,12.7,9.9,12.7
			s-6.4,5.6-15.1,14.8c-8.7,9.2-18.3,8.5-21.2,10.4c-3,1.9-16.5,5.9-16.5,5.9s10.6-4,13.4-11.5c2.8-7.5,7.3-12.1,9.9-15.8
			c2.6-3.7,13.2-11.8,13.2-11.8c1.4-3.8-3.6-1.9-3.6-1.9c-24.9,8.9-26.8,21.6-27.3,25.2c-0.5,3.7,1.7,6.3,1.7,6.3l-0.3,1.4l-1.7-2.4
			c-12.7-7.5-23.5,0-23.5,0c15.5-18.4,40.2-34.1,47.5-33.8c7.3,0.3,12.5-0.9,13-0.9s6.8-2.4,8.7-4.7c1.9-2.3,27.7-20.4,27.7-20.4
			s5.2-5.7,7.5-6c2.3-0.3,13.9-6.8,13.9-6.8l2.8-0.9c3.2,2.1,10,8.4,12.5,11.5C209.1,14.6,206.4,18.6,204.1,19.8z M132.2,49.1
			c-1.4,0.7-5,0-5,0c-0.3,2.5-4.5,6.7-7.5,8.5c-3,1.7-10.6,16-10.6,16s15.3-3.8,20-11.5c4.7-7.7,8.7-8.4,8.7-8.4
			C135.9,53.5,132.2,49.1,132.2,49.1z M153.3,68.9c-6.6,7.5-14.3,9-21.1,10.6c-6.8,1.6-16.9,8.9-20.9,12.4c-4,3.5-3.3,10.3-3.3,10.3
			c3-6.4,20.5-14.6,28.4-17c7.8-2.4,18.3-12.7,19-15.1c0.7-2.4,4.5-8.6,4.5-8.6L159,60C157.5,61.6,159.9,61.3,153.3,68.9z M91.9,96
			c-5.7,8.2-8.4,15.3-8.9,21.1c-0.5,5.7,2.8,22.4,3.5,28.9c0.7,6.4-1.2,9.2-1.2,9.2c0.9,0.9,0,5.6,0,4c0-1.6,7.1-11.3,7.1-11.3
			s-2.4,21.4-1,24c1.4,2.6,1.4,4.7,1.4,4.7l1.4,1c-1.9-4.7,5.2-15.1,5.2-15.1c1.6-17.4,7-20.7,11.8-25.2c4.9-4.5,21.9-9.2,22.8-10.4
			c0.8-1.2,1.1-2.7,1.1-2.7c-4,3.3-8,2.6-8,2.6c15.3-9.7,16.7-16,23.5-28.3c6.8-12.3,16.4-14.5,16.4-14.5v-1.2
			c-40.5,8.4-26.4,23.3-51.3,30.3c-24.9,7-21.2-20.4-21.2-20.4C92.8,92.9,91.9,96,91.9,96z M11.6,125.9c1.6-2.8,11.6-12.4,14-13.4
			c2.4-1,12.2-7.2,12.2-7.2c-1,5.2-6.2,10.8-4.8,9.9c1.4-0.9,8.2-6.5,9.2-8.3c1-1.8,3.6-1,3.6-1c4.4-6.4,24.6-13.8,25.8-14
			c1.2-0.2,6.8,1.2,7.6,7.8c0.8,6.6-6.2,5.6-6.2,5.6c-8-3.2-14.4,0.8-19.6,4.6c-5.2,3.8-12.2,4.2-12.2,4.2c4.2,3.4,13.6-2.8,20-5.4
			c6.4-2.6,13.4,2.4,13.4,2.4s-0.6-1.2,3.4-5.8c4-4.6,4.8-8.6,6.6-15.5c1.8-6.8,7-8.7,7-8.7c-4.4-7.3-17-5.3-20.8-4.9
			c-3.8,0.4-5.6-1.4-5.6-1.4c1.4,5.4-11.4,18.4-20.8,16.8c-9.4-1.6-15.8,1.8-17,2.8c-1.2,1,0.8,1,0.8,1c2-2.8,8-1.8,8-1.8
			s-2.4,6.4-9.2,8.5c-6.8,2.1-13.2,10.1-16.2,17.5c-3,7.4-10.8,16-10.8,16C3.2,135.3,10,128.7,11.6,125.9z M65.4,115.2
			c4.9-0.7,7.2,3.6,7.7,3.6c0.5,0,1.1-0.8,1.1-0.8c-0.6-2,0-5,0-5c-4.6-5.8-15.6-0.6-22.4,2.1c-6.8,2.7-11.8,0-11.8,0
			C46.7,120.3,60.4,115.9,65.4,115.2z M71,119.9c-4.4,3.6-8.3-2.1-18.8,0.6c-12.5,3.2-22-3.6-22-3.6c2.4,6.5,14.7,10.2,26.8,7.3
			c12.1-2.8,16.1,0.9,16.1,0.9s0.1-1.3-0.6-3c-0.7-1.6,0-2.4,0-2.4L71,119.9z M52.9,137.1c-3.1-0.3-7-4.9-18.5-9
			c-11.6-4.1-15.6,0.4-15.6,0.4c1.1-0.6,12.2,1.8,13.6,2.4c1.4,0.6,8,2.6,6.1,8.4c-1.9,5.9-6.5,7.2-6.5,7.2h1.6
			c5.2-3.3,6.5-1.7,7.7-2.5c1.2-0.8,6.9,0.5,12.6,1c5.7,0.5,12.4-4.1,14.8-5.8c2.4-1.7,2.4-5.9,2.4-5.9c2.4-3,2.1-6,2.1-6
			C70,138,55.9,137.4,52.9,137.1z M71.3,130.2c0,0-2.6-2.9-11.6-0.6c-8.9,2.3-18.4-2.6-18.4-2.6s-3.3,0.2-4,1.7c0,0,2.3,0.1,2.5,0.8
			c0,0,0.6-0.8,2.9,0c2.3,0.7,9.6,4.2,14.2,3.9c4.7-0.3,7.2-0.4,11.3-2.9c0,0,1.1-0.5,1.7,0.1C70.5,131.4,69.9,130.7,71.3,130.2z
			 M70.3,144.7c-2.4,3.3-4.3,13-5.4,19.9c-1.1,6.8,4.6,17.1,7.7,21.9c3.2,4.8,3.2,12.8,3.2,12.8c1.6,4.5-0.2,6.7-0.2,6.7
			c-0.8-3.3-5.8-12.7-8.4-17.8c-2.5-5.1-4.6-14.5-5-18c-0.4-3.6-1.4-7.1-1.4-7.1c-0.3,29.9,0.8,25.8,10.5,44.4
			c9.7,18.6,5.7,32.2,5.3,33.1c-0.4,0.9,0.6,1.2,0.6,1.2c5.6-16.1-0.8-32.5-0.8-32.5s0-2.8,1-4.8c1-2,1.1-7,1.1-7
			c5.1,5.1,6.2,12.6,6.8,21.6c0.6,9,7.3,15.9,7.3,15.9c-2.9-3.1-3.6-10.3-3-22c0.6-11.7-8.5-27.4-12.1-31.8
			c-3.7-4.4-4.6-9.1-4.6-9.1c2.7-1,5,3.6,6.2,4.5c1.1,0.9,1.2,0,1.2,0c-3-3.8-4.6-24.4-4.4-27.5c0.2-3-3-15.5-3-15.5
			C73.3,135.4,72.8,141.5,70.3,144.7z M63.9,257.4c0,0,0.6-5.6,3.6-9.6c3-4,5.8-16.8,2.8-28.4c-3-11.6-9.3-20-16-23.6
			c0,0-4.3-4.2-4.4-7.3c0,0,6.7,4.5,9.3,9.1c0,0-5-13.8-0.8-28.9c4.2-15.1,4.7-20.4,3.3-24.8c0,0-0.9,4.8-3.7,7.3
			c-2.8,2.5-17.1,16.9-20.2,21.5c-3.1,4.6-16.2,23.7-9.8,45.8c0,0-0.5-5.6,1.3-8.8c1.8-3.1,3.5-7.5,3.8-10.4c0,0,4.4,11,12.7,20.7
			c8.3,9.7,14.2,18.9,15,24.5C61.6,250.1,62.2,255.7,63.9,257.4z M35.2,154.8c-4.5,4.4-8.8,13.2-10.2,17.3c-1.4,4.1-2.9,5.5-2.9,5.5
			h1c0,0,0.3-1.3,2.3-2.7c2-1.4,7.6-8.9,8.4-11.3c0.8-2.4,3.4-4.1,3-3.6c-0.4,0.5-0.7,2.1-0.8,4.2c-0.1,2.1-0.8,4.9-0.8,4.9
			c0.8-1.2,2.2-3.8,2.7-5.4c0.5-1.6,9.3-9.7,9.3-9.7s4.3-3.5,3.9-4.4c-0.4-0.9,1.2-3,1.2-3C42.3,154.5,39.7,150.4,35.2,154.8z
			 M23.5,188.2c-5.1,7.5-4.8,16.8-4.8,16.8l1.1-0.5c-0.7,1.9,0.7,4.4,0.7,4.4c-0.5-1.9,0.8-6.6,1.6-9.6c0.8-3,4.4-7.1,7.1-12.3
			c2.7-5.2,1-14.9,1-14.9C30,176.6,28.6,180.7,23.5,188.2z M118.1,185c-1.9,9.4,2.5,23.1,3.3,25.1c0.8,2,0,5.2,0,5.2
			c5.1-10.7,24-25.8,30-27.6c6-1.8,12.5,3.5,12.6,12.9c0.1,9.4,4.6,18.5,4.8,19.5c0.2,1,7.6,10.7,10.6,12.7c3,2,6.8,7.9,6.8,7.9
			c1.5-4.8-2.7-10.8-2.8-12.9c-0.1-2.1-9.2-11-9.2-11c4.5-0.1,11.2,7.9,11.2,7.9h0.8c-0.2-1-1.3-2.4-4.4-5.8
			c-3.1-3.4-2.7-11.8-3-18.3c-0.3-6.5-7.5-25.5-18.1-26.9c-10.6-1.3-18.6,7.9-25.4,13.9c-6.8,6-9.2,1-9.2,1c-6.2-13.2,2.4-24,2.4-24
			c2-1.6,6.8-7.8,6.8-7.8C119.9,167.8,120,175.6,118.1,185z M118.5,226.1c0,0,2.1-2,3.1-2.6c3.2-2,6.5-2.9,10.5-7.7
			c4.3-5.1,9.4-6.6,14.7-6.5c5.3,0.1,12.7,13.8,14.4,16.4c1.7,2.6,7.9,7.9,9.8,7.8c1.9-0.1,9,4.3,8.3,3.6c-0.7-0.7-1.1-2.1-1.1-2.1
			s-2.1-0.4-3.5-2.4c-1.4-2-3.4-2.8-3.4-2.8c-6.1-1.3-10.4-10.7-11.2-12.3c-0.8-1.6-0.3-8.8-0.9-13.1c-0.6-4.3-4.4-9.3-8.7-10.6
			c-4.3-1.3-10.7,6.9-11.3,7.7c-0.6,0.8-6.3,8.2-7.8,9.6c-1.2,1.2-9.8,9.3-9.8,9.3c-2.7,5-5.6,5.8-5.6,5.8L118.5,226.1z
			 M102.4,249.5c0,0,2.7-4.6,8.4-7.7c5.7-3,11.7-4.7,11.7-4.7s11.7-6.1,15.9-9.6c4.2-3.5,13.5-2.1,17.6,2.9c4.1,5,12.4,11.8,19.8,9
			c0,0-9-0.9-14.3-7.2c-5.3-6.3-13.8-17.7-20-15.9c-6.2,1.8-12.5,7.2-14.7,10.8c-2.3,3.6-6.8,6.6-9.2,7.5
			C115.2,235.5,101.7,239.9,102.4,249.5z M180.2,155.2c-2.9,5.4,3,18.6,6.4,27c3.4,8.4,0.9,15,0.9,15l1.1-0.5
			c0.3,2.6-1.4,5.9-1.4,5.9c2.3,0,3.3-4.5,3.3-4.5c5.3,9.9,1.8,8.7,3.5,23c1.7,14.3,15.8,23.9,15.8,23.9c-2.1-2-2.9-5.1-5.9-12.2
			c-3-7.1-1.2-18.5-0.6-26.7c0.6-8.3-9.8-30.6-15.2-39.6c-5.4-9-5.3-19.9-5.3-19.9S183.1,149.8,180.2,155.2z M205,205.2
			c0,0,1.4,2.9,1.4,7.2c0,4.4-0.5,26.7,9.5,33.6c0,0-3-4.7-3-6.3c0-1.6,0.8-1.5,0.8-1.5s-2.7-5-2.6-14.1c0.2-9.2-3.8-16.2-3.8-16.2
			S206.9,208,205,205.2z M191,168.1c0,0,7.7,8.9,9.9,16.8c2.3,8,7.1,14.6,7.1,14.6s-1.7-4.7-1.5-5.9c0.2-1.2,4.2,6.3,5.1,10.1
			c0.9,3.8,1.7,23.9,11.6,32h1.5c0,0-4.7-11-5.1-16.1c-0.5-5.1-5-19.5-9.8-30.6C205,177.9,191,168.1,191,168.1z M232.2,243.6
			c0,0-6.6-7-6-23.1c0.6-15.7-4.8-21-4.8-21h-1.1c0,0,1.1-16.2-8.1-23.9c0,0,3.9,2.9,4.7,2.9c0,0-2-2-2.1-3.7
			c-0.1-1.7-2.6-1.2-2.8-4.2c-0.2-3-4.2-7.3-6.3-9c-2.1-1.7-13-10.9-11.6-24.6l-0.8-0.8c0,0,2-9.5,0.8-12.8l-1.2,3.5
			c0,0-0.9,8.5-3.4,13c-2.5,4.5-1.9,12.2-0.9,13.7c1,1.5,1.4,3,1.6,3.9c0.2,0.9,0.9-0.5,0.9-0.5s-1.1-2.7,0-3.5
			c1.1-0.8,12.8,14,13.3,15.1c0.5,1.1,9.2,17.5,10.7,29.8c0,0,0.4,2.6,0.8,2.6c0.3,0,0,3.3,0,3.3s1.4-1.2,1.3-3.7
			c-0.1-2.5,4.3,6.2,3.9,8.1c-0.4,1.9,3,5.3,2.8,10.7c0,0,1.1,3.2,1.2,6.3C225.1,228.7,224.8,237.2,232.2,243.6z"/>
	</g>
	<g id="XMLID_2_" class="st2">
		<path id="XMLID_311_" class="st3" d="M223.2,155.4L278.8,77h51.9l14.5,20.3l-51.3-0.1l-10.2,14.3H316L304.2,128H272l-41.6,58.4
			L223.2,155.4z M515.1,150.3l-8.9-13.8h-28.1l25.6-35.9H485l-25,35.3l8.2,14.4H515.1z M350.3,100.6h-18.7l-25,35.3l8.2,14.4
			L350.3,100.6z M411.7,110c-3.7,5.2-20.9,29.5-24,33.8c-3.1,4.3-10.7,6.5-10.7,6.5h-54.8l9.4-13l26-36.7h51.6
			C409.2,100.6,415.4,104.8,411.7,110z M388.8,116.1h-23.6l-14.5,20.3h21c0,0,3.2-0.8,4.4-2.4C377.2,132.5,388.8,116.1,388.8,116.1z
			 M670.7,110c-3.7,5.2-20.9,29.5-24,33.8c-3.1,4.3-10.7,6.5-10.7,6.5h-41.8c0,0-9.5-5-3.6-13c5.9-8,20.3-28.5,22.4-31.6
			c4-5.8,9.2-5.2,9.2-5.2h46C668.2,100.6,674.3,104.8,670.7,110z M646.1,118.4c1.9-2.7-1.4-2.2-1.4-2.2h-18.2c0,0-2.2-0.4-3.7,1.7
			c-1.5,2.1-10,14.1-11.4,16c-1.4,1.9,1.3,2.7,1.3,2.7h17.8c0,0,3.2-0.8,4.4-2.4C636.1,132.5,644.2,121.1,646.1,118.4z M811.3,110
			c-3.7,5.2-20.9,29.5-24,33.8c-3.1,4.3-10.7,6.5-10.7,6.5h-41.8c0,0-9.5-5-3.6-13c5.9-8,20.3-28.5,22.4-31.6c4-5.8,9.2-5.2,9.2-5.2
			h46C808.8,100.6,814.9,104.8,811.3,110z M786.7,118.4c1.9-2.7-1.4-2.2-1.4-2.2h-18.2c0,0-2.2-0.4-3.7,1.7
			c-1.5,2.1-10,14.1-11.4,16c-1.4,1.9,1.3,2.7,1.3,2.7h17.8c0,0,3.2-0.8,4.4-2.4C776.8,132.5,784.8,121.1,786.7,118.4z M426.4,100.8
			l-26,36.8l9.3,12.4H462l-8.4-13.6h-34.2l3.7-5.2h25.3l8.3-11.5h-25.4l3.7-5.2h29.7l10-13.8H426.4z M615,90l-22,31l-19.7,7.5l8,8.9
			l-34.2,48.1l-14-21.5l20.3-28.5L541.8,124l-18.2,25.4l-14-21.6L545.7,77h70.6C621.7,81.3,615,90,615,90z M581.5,96.1h-19.9
			l-8.7,12.2l4.8,8.2l14-6.4L581.5,96.1z M697.9,110.2l6.9-9.7h-18.7l-35.5,49.7h18.7l16.9-23.7l4.8,12.2l18.4-9.1l-13.6,19
			l9.8,12.4l43-60.5h-18.6l-10.6,15l-17.2,7.3L697.9,110.2z"/>
	</g>
</g>
<g id="Layer_3" class="st0">
	<g id="XMLID_3_" class="st2">
		<path id="XMLID_438_" class="st3" d="M242,53.7c0,0,8.2,7.2,12.4,4.1c0,0,1.7-0.5,0,0.8c-1.7,1.2-51.6,36.4-59.6,60.9
			c-8,24.5-15.3,28-15.3,28s-6.8,14.4-15.7,16.9c-8.9,2.4-29.1,6.3-33.2,12.2c0,0,3.5-7,7.3-8.7c3.8-1.7,20.9-11.7,24-12.4
			c3.1-0.7,8.2-10.3,8.2-10.3s-5,1.9-8.2,1.9c-3.1,0-12.4,0.2-15.3,3.3c0,0,2.3-9.6,19.7-17.7c17.4-8.2,19.3-17.6,19.3-17.6
			s18.8-31.6,52.9-49.6C238.4,65.6,247,62.2,242,53.7z M240.8,50.3c0,0-5.2-1.2-7.5-7.3c0,0-7,14.6-18.1,3.7c0,0-1.2,2.1,1,4.1
			c2.3,2,9.7,9.5,17.2-0.8C233.5,49.9,239.2,51,240.8,50.3z M208.3,16c0,0,5.4,11,4.9,15.7c-0.5,4.7-2.1,9.6-3.1,11.3
			c-1,1.7-3.8,9.7-1.7,12.2c0,0-1-2.7,4.9-8.2c0,0,2.4-4.2,2.7-9.4c0.3-5.2,4.2,0.9,4.2,0.9s-2.3-4.7-1.4-7.5
			C219.6,28.2,216.6,20.9,208.3,16z M192.8,50.3c0,0-1.6-9.3,5.9-14.7c0,0-6.7-3.4-6-9.9c0,0-2.1,1.6-2.7,4
			c-0.5,2.4-12.9,17.4-37.2,14.3c0,0-4.2,0-5.6,1.6c0,0,7.5-0.3,8.2,2.3c0.7,2.6-9.2,9.6-12.2,11.3c-3,1.7-13,7.3-19,17
			c0,0,6.6-6.8,9.6-7.8c3-1,16.9-11.7,18.3-13.2c1.4-1.5,4.7-1.8,1.6,6.5c0,0,2.3-0.9,3.5-4.2c1.2-3.3,1.9-3.7,3.3-3.9
			c1.4-0.1,11.5-2.6,22.6-10.7c0,0,5.2-1.2,5.7,0.9C189.3,45.9,192.8,50.3,192.8,50.3z M190,71.7c-6.9,13.7-4.2,18.1-4.2,18.1
			c0.7-5,4-9.6,4-9.6c9.9-17.2,0-25,0-25C194.7,64.3,190,71.7,190,71.7z M176.6,81.4c-2.4,6.8,1.6,11.3,1.6,11.3
			c-1.6-3.3,1-10.8,1-10.8c6.1-15.7,0-23,0-23C182.1,70.6,179,74.6,176.6,81.4z M204.1,19.8c-2.3,1.2-5.4,7.5-5.4,7.5
			c-2.1-18.1-20.9-10.6-29.2-8.4c-8.3,2.3-17.7,9.4-21.6,12.2c-3.8,2.8-2.8,4.5-2.8,4.5l-10.8,4.6c-1,13.6,9.9,12.7,9.9,12.7
			s-6.4,5.6-15.1,14.8c-8.7,9.2-18.3,8.5-21.2,10.4c-3,1.9-16.5,5.9-16.5,5.9s10.6-4,13.4-11.5c2.8-7.5,7.3-12.1,9.9-15.8
			c2.6-3.7,13.2-11.8,13.2-11.8c1.4-3.8-3.6-1.9-3.6-1.9c-24.9,8.9-26.8,21.6-27.3,25.2c-0.5,3.7,1.7,6.3,1.7,6.3l-0.3,1.4l-1.7-2.4
			c-12.7-7.5-23.5,0-23.5,0c15.5-18.4,40.2-34.1,47.5-33.8c7.3,0.3,12.5-0.9,13-0.9s6.8-2.4,8.7-4.7c1.9-2.3,27.7-20.4,27.7-20.4
			s5.2-5.7,7.5-6c2.3-0.3,13.9-6.8,13.9-6.8l2.8-0.9c3.2,2.1,10,8.4,12.5,11.5C209.1,14.6,206.4,18.6,204.1,19.8z M132.2,49.1
			c-1.4,0.7-5,0-5,0c-0.3,2.5-4.5,6.7-7.5,8.5c-3,1.7-10.6,16-10.6,16s15.3-3.8,20-11.5c4.7-7.7,8.7-8.4,8.7-8.4
			C135.9,53.5,132.2,49.1,132.2,49.1z M153.3,68.9c-6.6,7.5-14.3,9-21.1,10.6c-6.8,1.6-16.9,8.9-20.9,12.4c-4,3.5-3.3,10.3-3.3,10.3
			c3-6.4,20.5-14.6,28.4-17c7.8-2.4,18.3-12.7,19-15.1c0.7-2.4,4.5-8.6,4.5-8.6L159,60C157.5,61.6,159.9,61.3,153.3,68.9z M91.9,96
			c-5.7,8.2-8.4,15.3-8.9,21.1c-0.5,5.7,2.8,22.4,3.5,28.9c0.7,6.4-1.2,9.2-1.2,9.2c0.9,0.9,0,5.6,0,4c0-1.6,7.1-11.3,7.1-11.3
			s-2.4,21.4-1,24c1.4,2.6,1.4,4.7,1.4,4.7l1.4,1c-1.9-4.7,5.2-15.1,5.2-15.1c1.6-17.4,7-20.7,11.8-25.2c4.9-4.5,21.9-9.2,22.8-10.4
			c0.8-1.2,1.1-2.7,1.1-2.7c-4,3.3-8,2.6-8,2.6c15.3-9.7,16.7-16,23.5-28.3c6.8-12.3,16.4-14.5,16.4-14.5v-1.2
			c-40.5,8.4-26.4,23.3-51.3,30.3c-24.9,7-21.2-20.4-21.2-20.4C92.8,92.9,91.9,96,91.9,96z M11.6,125.9c1.6-2.8,11.6-12.4,14-13.4
			c2.4-1,12.2-7.2,12.2-7.2c-1,5.2-6.2,10.8-4.8,9.9c1.4-0.9,8.2-6.5,9.2-8.3c1-1.8,3.6-1,3.6-1c4.4-6.4,24.6-13.8,25.8-14
			c1.2-0.2,6.8,1.2,7.6,7.8c0.8,6.6-6.2,5.6-6.2,5.6c-8-3.2-14.4,0.8-19.6,4.6c-5.2,3.8-12.2,4.2-12.2,4.2c4.2,3.4,13.6-2.8,20-5.4
			c6.4-2.6,13.4,2.4,13.4,2.4s-0.6-1.2,3.4-5.8c4-4.6,4.8-8.6,6.6-15.5c1.8-6.8,7-8.7,7-8.7c-4.4-7.3-17-5.3-20.8-4.9
			c-3.8,0.4-5.6-1.4-5.6-1.4c1.4,5.4-11.4,18.4-20.8,16.8c-9.4-1.6-15.8,1.8-17,2.8c-1.2,1,0.8,1,0.8,1c2-2.8,8-1.8,8-1.8
			s-2.4,6.4-9.2,8.5c-6.8,2.1-13.2,10.1-16.2,17.5c-3,7.4-10.8,16-10.8,16C3.2,135.3,10,128.7,11.6,125.9z M65.4,115.2
			c4.9-0.7,7.2,3.6,7.7,3.6c0.5,0,1.1-0.8,1.1-0.8c-0.6-2,0-5,0-5c-4.6-5.8-15.6-0.6-22.4,2.1c-6.8,2.7-11.8,0-11.8,0
			C46.7,120.3,60.4,115.9,65.4,115.2z M71,119.9c-4.4,3.6-8.3-2.1-18.8,0.6c-12.5,3.2-22-3.6-22-3.6c2.4,6.5,14.7,10.2,26.8,7.3
			c12.1-2.8,16.1,0.9,16.1,0.9s0.1-1.3-0.6-3c-0.7-1.6,0-2.4,0-2.4L71,119.9z M52.9,137.1c-3.1-0.3-7-4.9-18.5-9
			c-11.6-4.1-15.6,0.4-15.6,0.4c1.1-0.6,12.2,1.8,13.6,2.4c1.4,0.6,8,2.6,6.1,8.4c-1.9,5.9-6.5,7.2-6.5,7.2h1.6
			c5.2-3.3,6.5-1.7,7.7-2.5c1.2-0.8,6.9,0.5,12.6,1c5.7,0.5,12.4-4.1,14.8-5.8c2.4-1.7,2.4-5.9,2.4-5.9c2.4-3,2.1-6,2.1-6
			C70,138,55.9,137.4,52.9,137.1z M71.3,130.2c0,0-2.6-2.9-11.6-0.6c-8.9,2.3-18.4-2.6-18.4-2.6s-3.3,0.2-4,1.7c0,0,2.3,0.1,2.5,0.8
			c0,0,0.6-0.8,2.9,0c2.3,0.7,9.6,4.2,14.2,3.9c4.7-0.3,7.2-0.4,11.3-2.9c0,0,1.1-0.5,1.7,0.1C70.5,131.4,69.9,130.7,71.3,130.2z
			 M70.3,144.7c-2.4,3.3-4.3,13-5.4,19.9c-1.1,6.8,4.6,17.1,7.7,21.9c3.2,4.8,3.2,12.8,3.2,12.8c1.6,4.5-0.2,6.7-0.2,6.7
			c-0.8-3.3-5.8-12.7-8.4-17.8c-2.5-5.1-4.6-14.5-5-18c-0.4-3.6-1.4-7.1-1.4-7.1c-0.3,29.9,0.8,25.8,10.5,44.4
			c9.7,18.6,5.7,32.2,5.3,33.1c-0.4,0.9,0.6,1.2,0.6,1.2c5.6-16.1-0.8-32.5-0.8-32.5s0-2.8,1-4.8c1-2,1.1-7,1.1-7
			c5.1,5.1,6.2,12.6,6.8,21.6c0.6,9,7.3,15.9,7.3,15.9c-2.9-3.1-3.6-10.3-3-22c0.6-11.7-8.5-27.4-12.1-31.8
			c-3.7-4.4-4.6-9.1-4.6-9.1c2.7-1,5,3.6,6.2,4.5c1.1,0.9,1.2,0,1.2,0c-3-3.8-4.6-24.4-4.4-27.5c0.2-3-3-15.5-3-15.5
			C73.3,135.4,72.8,141.5,70.3,144.7z M63.9,257.4c0,0,0.6-5.6,3.6-9.6c3-4,5.8-16.8,2.8-28.4c-3-11.6-9.3-20-16-23.6
			c0,0-4.3-4.2-4.4-7.3c0,0,6.7,4.5,9.3,9.1c0,0-5-13.8-0.8-28.9c4.2-15.1,4.7-20.4,3.3-24.8c0,0-0.9,4.8-3.7,7.3
			c-2.8,2.5-17.1,16.9-20.2,21.5c-3.1,4.6-16.2,23.7-9.8,45.8c0,0-0.5-5.6,1.3-8.8c1.8-3.1,3.5-7.5,3.8-10.4c0,0,4.4,11,12.7,20.7
			c8.3,9.7,14.2,18.9,15,24.5C61.6,250.1,62.2,255.7,63.9,257.4z M35.2,154.8c-4.5,4.4-8.8,13.2-10.2,17.3c-1.4,4.1-2.9,5.5-2.9,5.5
			h1c0,0,0.3-1.3,2.3-2.7c2-1.4,7.6-8.9,8.4-11.3c0.8-2.4,3.4-4.1,3-3.6c-0.4,0.5-0.7,2.1-0.8,4.2c-0.1,2.1-0.8,4.9-0.8,4.9
			c0.8-1.2,2.2-3.8,2.7-5.4c0.5-1.6,9.3-9.7,9.3-9.7s4.3-3.5,3.9-4.4c-0.4-0.9,1.2-3,1.2-3C42.3,154.5,39.7,150.4,35.2,154.8z
			 M23.5,188.2c-5.1,7.5-4.8,16.8-4.8,16.8l1.1-0.5c-0.7,1.9,0.7,4.4,0.7,4.4c-0.5-1.9,0.8-6.6,1.6-9.6c0.8-3,4.4-7.1,7.1-12.3
			c2.7-5.2,1-14.9,1-14.9C30,176.6,28.6,180.7,23.5,188.2z M118.1,185c-1.9,9.4,2.5,23.1,3.3,25.1c0.8,2,0,5.2,0,5.2
			c5.1-10.7,24-25.8,30-27.6c6-1.8,12.5,3.5,12.6,12.9c0.1,9.4,4.6,18.5,4.8,19.5c0.2,1,7.6,10.7,10.6,12.7c3,2,6.8,7.9,6.8,7.9
			c1.5-4.8-2.7-10.8-2.8-12.9c-0.1-2.1-9.2-11-9.2-11c4.5-0.1,11.2,7.9,11.2,7.9h0.8c-0.2-1-1.3-2.4-4.4-5.8
			c-3.1-3.4-2.7-11.8-3-18.3c-0.3-6.5-7.5-25.5-18.1-26.9c-10.6-1.3-18.6,7.9-25.4,13.9c-6.8,6-9.2,1-9.2,1c-6.2-13.2,2.4-24,2.4-24
			c2-1.6,6.8-7.8,6.8-7.8C119.9,167.8,120,175.6,118.1,185z M118.5,226.1c0,0,2.1-2,3.1-2.6c3.2-2,6.5-2.9,10.5-7.7
			c4.3-5.1,9.4-6.6,14.7-6.5c5.3,0.1,12.7,13.8,14.4,16.4c1.7,2.6,7.9,7.9,9.8,7.8c1.9-0.1,9,4.3,8.3,3.6c-0.7-0.7-1.1-2.1-1.1-2.1
			s-2.1-0.4-3.5-2.4c-1.4-2-3.4-2.8-3.4-2.8c-6.1-1.3-10.4-10.7-11.2-12.3c-0.8-1.6-0.3-8.8-0.9-13.1c-0.6-4.3-4.4-9.3-8.7-10.6
			c-4.3-1.3-10.7,6.9-11.3,7.7c-0.6,0.8-6.3,8.2-7.8,9.6c-1.2,1.2-9.8,9.3-9.8,9.3c-2.7,5-5.6,5.8-5.6,5.8L118.5,226.1z
			 M102.4,249.5c0,0,2.7-4.6,8.4-7.7c5.7-3,11.7-4.7,11.7-4.7s11.7-6.1,15.9-9.6c4.2-3.5,13.5-2.1,17.6,2.9c4.1,5,12.4,11.8,19.8,9
			c0,0-9-0.9-14.3-7.2c-5.3-6.3-13.8-17.7-20-15.9c-6.2,1.8-12.5,7.2-14.7,10.8c-2.3,3.6-6.8,6.6-9.2,7.5
			C115.2,235.5,101.7,239.9,102.4,249.5z M180.2,155.2c-2.9,5.4,3,18.6,6.4,27c3.4,8.4,0.9,15,0.9,15l1.1-0.5
			c0.3,2.6-1.4,5.9-1.4,5.9c2.3,0,3.3-4.5,3.3-4.5c5.3,9.9,1.8,8.7,3.5,23c1.7,14.3,15.8,23.9,15.8,23.9c-2.1-2-2.9-5.1-5.9-12.2
			c-3-7.1-1.2-18.5-0.6-26.7c0.6-8.3-9.8-30.6-15.2-39.6c-5.4-9-5.3-19.9-5.3-19.9S183.1,149.8,180.2,155.2z M205,205.2
			c0,0,1.4,2.9,1.4,7.2c0,4.4-0.5,26.7,9.5,33.6c0,0-3-4.7-3-6.3c0-1.6,0.8-1.5,0.8-1.5s-2.7-5-2.6-14.1c0.2-9.2-3.8-16.2-3.8-16.2
			S206.9,208,205,205.2z M191,168.1c0,0,7.7,8.9,9.9,16.8c2.3,8,7.1,14.6,7.1,14.6s-1.7-4.7-1.5-5.9c0.2-1.2,4.2,6.3,5.1,10.1
			c0.9,3.8,1.7,23.9,11.6,32h1.5c0,0-4.7-11-5.1-16.1c-0.5-5.1-5-19.5-9.8-30.6C205,177.9,191,168.1,191,168.1z M232.2,243.6
			c0,0-6.6-7-6-23.1c0.6-15.7-4.8-21-4.8-21h-1.1c0,0,1.1-16.2-8.1-23.9c0,0,3.9,2.9,4.7,2.9c0,0-2-2-2.1-3.7
			c-0.1-1.7-2.6-1.2-2.8-4.2c-0.2-3-4.2-7.3-6.3-9c-2.1-1.7-13-10.9-11.6-24.6l-0.8-0.8c0,0,2-9.5,0.8-12.8l-1.2,3.5
			c0,0-0.9,8.5-3.4,13c-2.5,4.5-1.9,12.2-0.9,13.7c1,1.5,1.4,3,1.6,3.9c0.2,0.9,0.9-0.5,0.9-0.5s-1.1-2.7,0-3.5
			c1.1-0.8,12.8,14,13.3,15.1c0.5,1.1,9.2,17.5,10.7,29.8c0,0,0.4,2.6,0.8,2.6c0.3,0,0,3.3,0,3.3s1.4-1.2,1.3-3.7
			c-0.1-2.5,4.3,6.2,3.9,8.1c-0.4,1.9,3,5.3,2.8,10.7c0,0,1.1,3.2,1.2,6.3C225.1,228.7,224.8,237.2,232.2,243.6z"/>
	</g>
	<g id="XMLID_101_" class="st2">
		<path id="XMLID_337_" class="st3" d="M223.2,155.4L278.8,77h51.9l14.5,20.3l-51.3-0.1l-10.2,14.3H316L304.2,128H272l-41.6,58.4
			L223.2,155.4z M515.1,150.3l-8.9-13.8h-28.1l25.6-35.9H485l-25,35.3l8.2,14.4H515.1z M350.3,100.6h-18.7l-25,35.3l8.2,14.4
			L350.3,100.6z M411.7,110c-3.7,5.2-20.9,29.5-24,33.8c-3.1,4.3-10.7,6.5-10.7,6.5h-54.8l9.4-13l26-36.7h51.6
			C409.2,100.6,415.4,104.8,411.7,110z M388.8,116.1h-23.6l-14.5,20.3h21c0,0,3.2-0.8,4.4-2.4C377.2,132.5,388.8,116.1,388.8,116.1z
			 M670.7,110c-3.7,5.2-20.9,29.5-24,33.8c-3.1,4.3-10.7,6.5-10.7,6.5h-41.8c0,0-9.5-5-3.6-13c5.9-8,20.3-28.5,22.4-31.6
			c4-5.8,9.2-5.2,9.2-5.2h46C668.2,100.6,674.3,104.8,670.7,110z M646.1,118.4c1.9-2.7-1.4-2.2-1.4-2.2h-18.2c0,0-2.2-0.4-3.7,1.7
			c-1.5,2.1-10,14.1-11.4,16c-1.4,1.9,1.3,2.7,1.3,2.7h17.8c0,0,3.2-0.8,4.4-2.4C636.1,132.5,644.2,121.1,646.1,118.4z M811.3,110
			c-3.7,5.2-20.9,29.5-24,33.8c-3.1,4.3-10.7,6.5-10.7,6.5h-41.8c0,0-9.5-5-3.6-13c5.9-8,20.3-28.5,22.4-31.6c4-5.8,9.2-5.2,9.2-5.2
			h46C808.8,100.6,814.9,104.8,811.3,110z M786.7,118.4c1.9-2.7-1.4-2.2-1.4-2.2h-18.2c0,0-2.2-0.4-3.7,1.7
			c-1.5,2.1-10,14.1-11.4,16c-1.4,1.9,1.3,2.7,1.3,2.7h17.8c0,0,3.2-0.8,4.4-2.4C776.8,132.5,784.8,121.1,786.7,118.4z M426.4,100.8
			l-26,36.8l9.3,12.4H462l-8.4-13.6h-34.2l3.7-5.2h25.3l8.3-11.5h-25.4l3.7-5.2h29.7l10-13.8H426.4z M615,90l-22,31l-19.7,7.5l8,8.9
			l-34.2,48.1l-14-21.5l20.3-28.5L541.8,124l-18.2,25.4l-14-21.6L545.7,77h70.6C621.7,81.3,615,90,615,90z M581.5,96.1h-19.9
			l-8.7,12.2l4.8,8.2l14-6.4L581.5,96.1z M697.9,110.2l6.9-9.7h-18.7l-35.5,49.7h18.7l16.9-23.7l4.8,12.2l18.4-9.1l-13.6,19
			l9.8,12.4l43-60.5h-18.6l-10.6,15l-17.2,7.3L697.9,110.2z"/>
	</g>
</g>
<g id="Layer_4" class="st0">
	<g id="XMLID_4_" class="st2">
		<path id="XMLID_466_" class="st4" d="M242,53.7c0,0,8.2,7.2,12.4,4.1c0,0,1.7-0.5,0,0.8c-1.7,1.2-51.6,36.4-59.6,60.9
			c-8,24.5-15.3,28-15.3,28s-6.8,14.4-15.7,16.9c-8.9,2.4-29.1,6.3-33.2,12.2c0,0,3.5-7,7.3-8.7c3.8-1.7,20.9-11.7,24-12.4
			c3.1-0.7,8.2-10.3,8.2-10.3s-5,1.9-8.2,1.9c-3.1,0-12.4,0.2-15.3,3.3c0,0,2.3-9.6,19.7-17.7c17.4-8.2,19.3-17.6,19.3-17.6
			s18.8-31.6,52.9-49.6C238.4,65.6,247,62.2,242,53.7z M240.8,50.3c0,0-5.2-1.2-7.5-7.3c0,0-7,14.6-18.1,3.7c0,0-1.2,2.1,1,4.1
			c2.3,2,9.7,9.5,17.2-0.8C233.5,49.9,239.2,51,240.8,50.3z M208.3,16c0,0,5.4,11,4.9,15.7c-0.5,4.7-2.1,9.6-3.1,11.3
			c-1,1.7-3.8,9.7-1.7,12.2c0,0-1-2.7,4.9-8.2c0,0,2.4-4.2,2.7-9.4c0.3-5.2,4.2,0.9,4.2,0.9s-2.3-4.7-1.4-7.5
			C219.6,28.2,216.6,20.9,208.3,16z M192.8,50.3c0,0-1.6-9.3,5.9-14.7c0,0-6.7-3.4-6-9.9c0,0-2.1,1.6-2.7,4
			c-0.5,2.4-12.9,17.4-37.2,14.3c0,0-4.2,0-5.6,1.6c0,0,7.5-0.3,8.2,2.3c0.7,2.6-9.2,9.6-12.2,11.3c-3,1.7-13,7.3-19,17
			c0,0,6.6-6.8,9.6-7.8c3-1,16.9-11.7,18.3-13.2c1.4-1.5,4.7-1.8,1.6,6.5c0,0,2.3-0.9,3.5-4.2c1.2-3.3,1.9-3.7,3.3-3.9
			c1.4-0.1,11.5-2.6,22.6-10.7c0,0,5.2-1.2,5.7,0.9C189.3,45.9,192.8,50.3,192.8,50.3z M190,71.7c-6.9,13.7-4.2,18.1-4.2,18.1
			c0.7-5,4-9.6,4-9.6c9.9-17.2,0-25,0-25C194.7,64.3,190,71.7,190,71.7z M176.6,81.4c-2.4,6.8,1.6,11.3,1.6,11.3
			c-1.6-3.3,1-10.8,1-10.8c6.1-15.7,0-23,0-23C182.1,70.6,179,74.6,176.6,81.4z M204.1,19.8c-2.3,1.2-5.4,7.5-5.4,7.5
			c-2.1-18.1-20.9-10.6-29.2-8.4c-8.3,2.3-17.7,9.4-21.6,12.2c-3.8,2.8-2.8,4.5-2.8,4.5l-10.8,4.6c-1,13.6,9.9,12.7,9.9,12.7
			s-6.4,5.6-15.1,14.8c-8.7,9.2-18.3,8.5-21.2,10.4c-3,1.9-16.5,5.9-16.5,5.9s10.6-4,13.4-11.5c2.8-7.5,7.3-12.1,9.9-15.8
			c2.6-3.7,13.2-11.8,13.2-11.8c1.4-3.8-3.6-1.9-3.6-1.9c-24.9,8.9-26.8,21.6-27.3,25.2c-0.5,3.7,1.7,6.3,1.7,6.3l-0.3,1.4l-1.7-2.4
			c-12.7-7.5-23.5,0-23.5,0c15.5-18.4,40.2-34.1,47.5-33.8c7.3,0.3,12.5-0.9,13-0.9s6.8-2.4,8.7-4.7c1.9-2.3,27.7-20.4,27.7-20.4
			s5.2-5.7,7.5-6c2.3-0.3,13.9-6.8,13.9-6.8l2.8-0.9c3.2,2.1,10,8.4,12.5,11.5C209.1,14.6,206.4,18.6,204.1,19.8z M132.2,49.1
			c-1.4,0.7-5,0-5,0c-0.3,2.5-4.5,6.7-7.5,8.5c-3,1.7-10.6,16-10.6,16s15.3-3.8,20-11.5c4.7-7.7,8.7-8.4,8.7-8.4
			C135.9,53.5,132.2,49.1,132.2,49.1z M153.3,68.9c-6.6,7.5-14.3,9-21.1,10.6c-6.8,1.6-16.9,8.9-20.9,12.4c-4,3.5-3.3,10.3-3.3,10.3
			c3-6.4,20.5-14.6,28.4-17c7.8-2.4,18.3-12.7,19-15.1c0.7-2.4,4.5-8.6,4.5-8.6L159,60C157.5,61.6,159.9,61.3,153.3,68.9z M91.9,96
			c-5.7,8.2-8.4,15.3-8.9,21.1c-0.5,5.7,2.8,22.4,3.5,28.9c0.7,6.4-1.2,9.2-1.2,9.2c0.9,0.9,0,5.6,0,4c0-1.6,7.1-11.3,7.1-11.3
			s-2.4,21.4-1,24c1.4,2.6,1.4,4.7,1.4,4.7l1.4,1c-1.9-4.7,5.2-15.1,5.2-15.1c1.6-17.4,7-20.7,11.8-25.2c4.9-4.5,21.9-9.2,22.8-10.4
			c0.8-1.2,1.1-2.7,1.1-2.7c-4,3.3-8,2.6-8,2.6c15.3-9.7,16.7-16,23.5-28.3c6.8-12.3,16.4-14.5,16.4-14.5v-1.2
			c-40.5,8.4-26.4,23.3-51.3,30.3c-24.9,7-21.2-20.4-21.2-20.4C92.8,92.9,91.9,96,91.9,96z M11.6,125.9c1.6-2.8,11.6-12.4,14-13.4
			c2.4-1,12.2-7.2,12.2-7.2c-1,5.2-6.2,10.8-4.8,9.9c1.4-0.9,8.2-6.5,9.2-8.3c1-1.8,3.6-1,3.6-1c4.4-6.4,24.6-13.8,25.8-14
			c1.2-0.2,6.8,1.2,7.6,7.8c0.8,6.6-6.2,5.6-6.2,5.6c-8-3.2-14.4,0.8-19.6,4.6c-5.2,3.8-12.2,4.2-12.2,4.2c4.2,3.4,13.6-2.8,20-5.4
			c6.4-2.6,13.4,2.4,13.4,2.4s-0.6-1.2,3.4-5.8c4-4.6,4.8-8.6,6.6-15.5c1.8-6.8,7-8.7,7-8.7c-4.4-7.3-17-5.3-20.8-4.9
			c-3.8,0.4-5.6-1.4-5.6-1.4c1.4,5.4-11.4,18.4-20.8,16.8c-9.4-1.6-15.8,1.8-17,2.8c-1.2,1,0.8,1,0.8,1c2-2.8,8-1.8,8-1.8
			s-2.4,6.4-9.2,8.5c-6.8,2.1-13.2,10.1-16.2,17.5c-3,7.4-10.8,16-10.8,16C3.2,135.3,10,128.7,11.6,125.9z M65.4,115.2
			c4.9-0.7,7.2,3.6,7.7,3.6c0.5,0,1.1-0.8,1.1-0.8c-0.6-2,0-5,0-5c-4.6-5.8-15.6-0.6-22.4,2.1c-6.8,2.7-11.8,0-11.8,0
			C46.7,120.3,60.4,115.9,65.4,115.2z M71,119.9c-4.4,3.6-8.3-2.1-18.8,0.6c-12.5,3.2-22-3.6-22-3.6c2.4,6.5,14.7,10.2,26.8,7.3
			c12.1-2.8,16.1,0.9,16.1,0.9s0.1-1.3-0.6-3c-0.7-1.6,0-2.4,0-2.4L71,119.9z M52.9,137.1c-3.1-0.3-7-4.9-18.5-9
			c-11.6-4.1-15.6,0.4-15.6,0.4c1.1-0.6,12.2,1.8,13.6,2.4c1.4,0.6,8,2.6,6.1,8.4c-1.9,5.9-6.5,7.2-6.5,7.2h1.6
			c5.2-3.3,6.5-1.7,7.7-2.5c1.2-0.8,6.9,0.5,12.6,1c5.7,0.5,12.4-4.1,14.8-5.8c2.4-1.7,2.4-5.9,2.4-5.9c2.4-3,2.1-6,2.1-6
			C70,138,55.9,137.4,52.9,137.1z M71.3,130.2c0,0-2.6-2.9-11.6-0.6c-8.9,2.3-18.4-2.6-18.4-2.6s-3.3,0.2-4,1.7c0,0,2.3,0.1,2.5,0.8
			c0,0,0.6-0.8,2.9,0c2.3,0.7,9.6,4.2,14.2,3.9c4.7-0.3,7.2-0.4,11.3-2.9c0,0,1.1-0.5,1.7,0.1C70.5,131.4,69.9,130.7,71.3,130.2z
			 M70.3,144.7c-2.4,3.3-4.3,13-5.4,19.9c-1.1,6.8,4.6,17.1,7.7,21.9c3.2,4.8,3.2,12.8,3.2,12.8c1.6,4.5-0.2,6.7-0.2,6.7
			c-0.8-3.3-5.8-12.7-8.4-17.8c-2.5-5.1-4.6-14.5-5-18c-0.4-3.6-1.4-7.1-1.4-7.1c-0.3,29.9,0.8,25.8,10.5,44.4
			c9.7,18.6,5.7,32.2,5.3,33.1c-0.4,0.9,0.6,1.2,0.6,1.2c5.6-16.1-0.8-32.5-0.8-32.5s0-2.8,1-4.8c1-2,1.1-7,1.1-7
			c5.1,5.1,6.2,12.6,6.8,21.6c0.6,9,7.3,15.9,7.3,15.9c-2.9-3.1-3.6-10.3-3-22c0.6-11.7-8.5-27.4-12.1-31.8
			c-3.7-4.4-4.6-9.1-4.6-9.1c2.7-1,5,3.6,6.2,4.5c1.1,0.9,1.2,0,1.2,0c-3-3.8-4.6-24.4-4.4-27.5c0.2-3-3-15.5-3-15.5
			C73.3,135.4,72.8,141.5,70.3,144.7z M63.9,257.4c0,0,0.6-5.6,3.6-9.6c3-4,5.8-16.8,2.8-28.4c-3-11.6-9.3-20-16-23.6
			c0,0-4.3-4.2-4.4-7.3c0,0,6.7,4.5,9.3,9.1c0,0-5-13.8-0.8-28.9c4.2-15.1,4.7-20.4,3.3-24.8c0,0-0.9,4.8-3.7,7.3
			c-2.8,2.5-17.1,16.9-20.2,21.5c-3.1,4.6-16.2,23.7-9.8,45.8c0,0-0.5-5.6,1.3-8.8c1.8-3.1,3.5-7.5,3.8-10.4c0,0,4.4,11,12.7,20.7
			c8.3,9.7,14.2,18.9,15,24.5C61.6,250.1,62.2,255.7,63.9,257.4z M35.2,154.8c-4.5,4.4-8.8,13.2-10.2,17.3c-1.4,4.1-2.9,5.5-2.9,5.5
			h1c0,0,0.3-1.3,2.3-2.7c2-1.4,7.6-8.9,8.4-11.3c0.8-2.4,3.4-4.1,3-3.6c-0.4,0.5-0.7,2.1-0.8,4.2c-0.1,2.1-0.8,4.9-0.8,4.9
			c0.8-1.2,2.2-3.8,2.7-5.4c0.5-1.6,9.3-9.7,9.3-9.7s4.3-3.5,3.9-4.4c-0.4-0.9,1.2-3,1.2-3C42.3,154.5,39.7,150.4,35.2,154.8z
			 M23.5,188.2c-5.1,7.5-4.8,16.8-4.8,16.8l1.1-0.5c-0.7,1.9,0.7,4.4,0.7,4.4c-0.5-1.9,0.8-6.6,1.6-9.6c0.8-3,4.4-7.1,7.1-12.3
			c2.7-5.2,1-14.9,1-14.9C30,176.6,28.6,180.7,23.5,188.2z M118.1,185c-1.9,9.4,2.5,23.1,3.3,25.1c0.8,2,0,5.2,0,5.2
			c5.1-10.7,24-25.8,30-27.6c6-1.8,12.5,3.5,12.6,12.9c0.1,9.4,4.6,18.5,4.8,19.5c0.2,1,7.6,10.7,10.6,12.7c3,2,6.8,7.9,6.8,7.9
			c1.5-4.8-2.7-10.8-2.8-12.9c-0.1-2.1-9.2-11-9.2-11c4.5-0.1,11.2,7.9,11.2,7.9h0.8c-0.2-1-1.3-2.4-4.4-5.8
			c-3.1-3.4-2.7-11.8-3-18.3c-0.3-6.5-7.5-25.5-18.1-26.9c-10.6-1.3-18.6,7.9-25.4,13.9c-6.8,6-9.2,1-9.2,1c-6.2-13.2,2.4-24,2.4-24
			c2-1.6,6.8-7.8,6.8-7.8C119.9,167.8,120,175.6,118.1,185z M118.5,226.1c0,0,2.1-2,3.1-2.6c3.2-2,6.5-2.9,10.5-7.7
			c4.3-5.1,9.4-6.6,14.7-6.5c5.3,0.1,12.7,13.8,14.4,16.4c1.7,2.6,7.9,7.9,9.8,7.8c1.9-0.1,9,4.3,8.3,3.6c-0.7-0.7-1.1-2.1-1.1-2.1
			s-2.1-0.4-3.5-2.4c-1.4-2-3.4-2.8-3.4-2.8c-6.1-1.3-10.4-10.7-11.2-12.3c-0.8-1.6-0.3-8.8-0.9-13.1c-0.6-4.3-4.4-9.3-8.7-10.6
			c-4.3-1.3-10.7,6.9-11.3,7.7c-0.6,0.8-6.3,8.2-7.8,9.6c-1.2,1.2-9.8,9.3-9.8,9.3c-2.7,5-5.6,5.8-5.6,5.8L118.5,226.1z
			 M102.4,249.5c0,0,2.7-4.6,8.4-7.7c5.7-3,11.7-4.7,11.7-4.7s11.7-6.1,15.9-9.6c4.2-3.5,13.5-2.1,17.6,2.9c4.1,5,12.4,11.8,19.8,9
			c0,0-9-0.9-14.3-7.2c-5.3-6.3-13.8-17.7-20-15.9c-6.2,1.8-12.5,7.2-14.7,10.8c-2.3,3.6-6.8,6.6-9.2,7.5
			C115.2,235.5,101.7,239.9,102.4,249.5z M180.2,155.2c-2.9,5.4,3,18.6,6.4,27c3.4,8.4,0.9,15,0.9,15l1.1-0.5
			c0.3,2.6-1.4,5.9-1.4,5.9c2.3,0,3.3-4.5,3.3-4.5c5.3,9.9,1.8,8.7,3.5,23c1.7,14.3,15.8,23.9,15.8,23.9c-2.1-2-2.9-5.1-5.9-12.2
			c-3-7.1-1.2-18.5-0.6-26.7c0.6-8.3-9.8-30.6-15.2-39.6c-5.4-9-5.3-19.9-5.3-19.9S183.1,149.8,180.2,155.2z M205,205.2
			c0,0,1.4,2.9,1.4,7.2c0,4.4-0.5,26.7,9.5,33.6c0,0-3-4.7-3-6.3c0-1.6,0.8-1.5,0.8-1.5s-2.7-5-2.6-14.1c0.2-9.2-3.8-16.2-3.8-16.2
			S206.9,208,205,205.2z M191,168.1c0,0,7.7,8.9,9.9,16.8c2.3,8,7.1,14.6,7.1,14.6s-1.7-4.7-1.5-5.9c0.2-1.2,4.2,6.3,5.1,10.1
			c0.9,3.8,1.7,23.9,11.6,32h1.5c0,0-4.7-11-5.1-16.1c-0.5-5.1-5-19.5-9.8-30.6C205,177.9,191,168.1,191,168.1z M232.2,243.6
			c0,0-6.6-7-6-23.1c0.6-15.7-4.8-21-4.8-21h-1.1c0,0,1.1-16.2-8.1-23.9c0,0,3.9,2.9,4.7,2.9c0,0-2-2-2.1-3.7
			c-0.1-1.7-2.6-1.2-2.8-4.2c-0.2-3-4.2-7.3-6.3-9c-2.1-1.7-13-10.9-11.6-24.6l-0.8-0.8c0,0,2-9.5,0.8-12.8l-1.2,3.5
			c0,0-0.9,8.5-3.4,13c-2.5,4.5-1.9,12.2-0.9,13.7c1,1.5,1.4,3,1.6,3.9c0.2,0.9,0.9-0.5,0.9-0.5s-1.1-2.7,0-3.5
			c1.1-0.8,12.8,14,13.3,15.1c0.5,1.1,9.2,17.5,10.7,29.8c0,0,0.4,2.6,0.8,2.6c0.3,0,0,3.3,0,3.3s1.4-1.2,1.3-3.7
			c-0.1-2.5,4.3,6.2,3.9,8.1c-0.4,1.9,3,5.3,2.8,10.7c0,0,1.1,3.2,1.2,6.3C225.1,228.7,224.8,237.2,232.2,243.6z"/>
	</g>
	<g id="XMLID_170_" class="st2">
		<path id="XMLID_284_" class="st4" d="M223.2,155.4L278.8,77h51.9l14.5,20.3l-51.3-0.1l-10.2,14.3H316L304.2,128H272l-41.6,58.4
			L223.2,155.4z M515.1,150.3l-8.9-13.8h-28.1l25.6-35.9H485l-25,35.3l8.2,14.4H515.1z M350.3,100.6h-18.7l-25,35.3l8.2,14.4
			L350.3,100.6z M411.7,110c-3.7,5.2-20.9,29.5-24,33.8c-3.1,4.3-10.7,6.5-10.7,6.5h-54.8l9.4-13l26-36.7h51.6
			C409.2,100.6,415.4,104.8,411.7,110z M388.8,116.1h-23.6l-14.5,20.3h21c0,0,3.2-0.8,4.4-2.4C377.2,132.5,388.8,116.1,388.8,116.1z
			 M670.7,110c-3.7,5.2-20.9,29.5-24,33.8c-3.1,4.3-10.7,6.5-10.7,6.5h-41.8c0,0-9.5-5-3.6-13c5.9-8,20.3-28.5,22.4-31.6
			c4-5.8,9.2-5.2,9.2-5.2h46C668.2,100.6,674.3,104.8,670.7,110z M646.1,118.4c1.9-2.7-1.4-2.2-1.4-2.2h-18.2c0,0-2.2-0.4-3.7,1.7
			c-1.5,2.1-10,14.1-11.4,16c-1.4,1.9,1.3,2.7,1.3,2.7h17.8c0,0,3.2-0.8,4.4-2.4C636.1,132.5,644.2,121.1,646.1,118.4z M811.3,110
			c-3.7,5.2-20.9,29.5-24,33.8c-3.1,4.3-10.7,6.5-10.7,6.5h-41.8c0,0-9.5-5-3.6-13c5.9-8,20.3-28.5,22.4-31.6c4-5.8,9.2-5.2,9.2-5.2
			h46C808.8,100.6,814.9,104.8,811.3,110z M786.7,118.4c1.9-2.7-1.4-2.2-1.4-2.2h-18.2c0,0-2.2-0.4-3.7,1.7
			c-1.5,2.1-10,14.1-11.4,16c-1.4,1.9,1.3,2.7,1.3,2.7h17.8c0,0,3.2-0.8,4.4-2.4C776.8,132.5,784.8,121.1,786.7,118.4z M426.4,100.8
			l-26,36.8l9.3,12.4H462l-8.4-13.6h-34.2l3.7-5.2h25.3l8.3-11.5h-25.4l3.7-5.2h29.7l10-13.8H426.4z M615,90l-22,31l-19.7,7.5l8,8.9
			l-34.2,48.1l-14-21.5l20.3-28.5L541.8,124l-18.2,25.4l-14-21.6L545.7,77h70.6C621.7,81.3,615,90,615,90z M581.5,96.1h-19.9
			l-8.7,12.2l4.8,8.2l14-6.4L581.5,96.1z M697.9,110.2l6.9-9.7h-18.7l-35.5,49.7h18.7l16.9-23.7l4.8,12.2l18.4-9.1l-13.6,19
			l9.8,12.4l43-60.5h-18.6l-10.6,15l-17.2,7.3L697.9,110.2z"/>
	</g>
</g>
<g id="Layer_5">
	<g id="XMLID_5_">
		<path id="XMLID_494_" class="st5" d="M242,53.7c0,0,8.2,7.2,12.4,4.1c0,0,1.7-0.5,0,0.8c-1.7,1.2-51.6,36.4-59.6,60.9
			c-8,24.5-15.3,28-15.3,28s-6.8,14.4-15.7,16.9c-8.9,2.4-29.1,6.3-33.2,12.2c0,0,3.5-7,7.3-8.7c3.8-1.7,20.9-11.7,24-12.4
			c3.1-0.7,8.2-10.3,8.2-10.3s-5,1.9-8.2,1.9c-3.1,0-12.4,0.2-15.3,3.3c0,0,2.3-9.6,19.7-17.7c17.4-8.2,19.3-17.6,19.3-17.6
			s18.8-31.6,52.9-49.6C238.4,65.6,247,62.2,242,53.7z M240.8,50.3c0,0-5.2-1.2-7.5-7.3c0,0-7,14.6-18.1,3.7c0,0-1.2,2.1,1,4.1
			c2.3,2,9.7,9.5,17.2-0.8C233.5,49.9,239.2,51,240.8,50.3z M208.3,16c0,0,5.4,11,4.9,15.7c-0.5,4.7-2.1,9.6-3.1,11.3
			c-1,1.7-3.8,9.7-1.7,12.2c0,0-1-2.7,4.9-8.2c0,0,2.4-4.2,2.7-9.4c0.3-5.2,4.2,0.9,4.2,0.9s-2.3-4.7-1.4-7.5
			C219.6,28.2,216.6,20.9,208.3,16z M192.8,50.3c0,0-1.6-9.3,5.9-14.7c0,0-6.7-3.4-6-9.9c0,0-2.1,1.6-2.7,4
			c-0.5,2.4-12.9,17.4-37.2,14.3c0,0-4.2,0-5.6,1.6c0,0,7.5-0.3,8.2,2.3c0.7,2.6-9.2,9.6-12.2,11.3c-3,1.7-13,7.3-19,17
			c0,0,6.6-6.8,9.6-7.8c3-1,16.9-11.7,18.3-13.2c1.4-1.5,4.7-1.8,1.6,6.5c0,0,2.3-0.9,3.5-4.2c1.2-3.3,1.9-3.7,3.3-3.9
			c1.4-0.1,11.5-2.6,22.6-10.7c0,0,5.2-1.2,5.7,0.9C189.3,45.9,192.8,50.3,192.8,50.3z M190,71.7c-6.9,13.7-4.2,18.1-4.2,18.1
			c0.7-5,4-9.6,4-9.6c9.9-17.2,0-25,0-25C194.7,64.3,190,71.7,190,71.7z M176.6,81.4c-2.4,6.8,1.6,11.3,1.6,11.3
			c-1.6-3.3,1-10.8,1-10.8c6.1-15.7,0-23,0-23C182.1,70.6,179,74.6,176.6,81.4z M204.1,19.8c-2.3,1.2-5.4,7.5-5.4,7.5
			c-2.1-18.1-20.9-10.6-29.2-8.4c-8.3,2.3-17.7,9.4-21.6,12.2c-3.8,2.8-2.8,4.5-2.8,4.5l-10.8,4.6c-1,13.6,9.9,12.7,9.9,12.7
			s-6.4,5.6-15.1,14.8c-8.7,9.2-18.3,8.5-21.2,10.4c-3,1.9-16.5,5.9-16.5,5.9s10.6-4,13.4-11.5c2.8-7.5,7.3-12.1,9.9-15.8
			c2.6-3.7,13.2-11.8,13.2-11.8c1.4-3.8-3.6-1.9-3.6-1.9c-24.9,8.9-26.8,21.6-27.3,25.2c-0.5,3.7,1.7,6.3,1.7,6.3l-0.3,1.4l-1.7-2.4
			c-12.7-7.5-23.5,0-23.5,0c15.5-18.4,40.2-34.1,47.5-33.8c7.3,0.3,12.5-0.9,13-0.9s6.8-2.4,8.7-4.7c1.9-2.3,27.7-20.4,27.7-20.4
			s5.2-5.7,7.5-6c2.3-0.3,13.9-6.8,13.9-6.8l2.8-0.9c3.2,2.1,10,8.4,12.5,11.5C209.1,14.6,206.4,18.6,204.1,19.8z M132.2,49.1
			c-1.4,0.7-5,0-5,0c-0.3,2.5-4.5,6.7-7.5,8.5c-3,1.7-10.6,16-10.6,16s15.3-3.8,20-11.5c4.7-7.7,8.7-8.4,8.7-8.4
			C135.9,53.5,132.2,49.1,132.2,49.1z M153.3,68.9c-6.6,7.5-14.3,9-21.1,10.6c-6.8,1.6-16.9,8.9-20.9,12.4c-4,3.5-3.3,10.3-3.3,10.3
			c3-6.4,20.5-14.6,28.4-17c7.8-2.4,18.3-12.7,19-15.1c0.7-2.4,4.5-8.6,4.5-8.6L159,60C157.5,61.6,159.9,61.3,153.3,68.9z M91.9,96
			c-5.7,8.2-8.4,15.3-8.9,21.1c-0.5,5.7,2.8,22.4,3.5,28.9c0.7,6.4-1.2,9.2-1.2,9.2c0.9,0.9,0,5.6,0,4c0-1.6,7.1-11.3,7.1-11.3
			s-2.4,21.4-1,24c1.4,2.6,1.4,4.7,1.4,4.7l1.4,1c-1.9-4.7,5.2-15.1,5.2-15.1c1.6-17.4,7-20.7,11.8-25.2c4.9-4.5,21.9-9.2,22.8-10.4
			c0.8-1.2,1.1-2.7,1.1-2.7c-4,3.3-8,2.6-8,2.6c15.3-9.7,16.7-16,23.5-28.3c6.8-12.3,16.4-14.5,16.4-14.5v-1.2
			c-40.5,8.4-26.4,23.3-51.3,30.3c-24.9,7-21.2-20.4-21.2-20.4C92.8,92.9,91.9,96,91.9,96z M11.6,125.9c1.6-2.8,11.6-12.4,14-13.4
			c2.4-1,12.2-7.2,12.2-7.2c-1,5.2-6.2,10.8-4.8,9.9c1.4-0.9,8.2-6.5,9.2-8.3c1-1.8,3.6-1,3.6-1c4.4-6.4,24.6-13.8,25.8-14
			c1.2-0.2,6.8,1.2,7.6,7.8c0.8,6.6-6.2,5.6-6.2,5.6c-8-3.2-14.4,0.8-19.6,4.6c-5.2,3.8-12.2,4.2-12.2,4.2c4.2,3.4,13.6-2.8,20-5.4
			c6.4-2.6,13.4,2.4,13.4,2.4s-0.6-1.2,3.4-5.8c4-4.6,4.8-8.6,6.6-15.5c1.8-6.8,7-8.7,7-8.7c-4.4-7.3-17-5.3-20.8-4.9
			c-3.8,0.4-5.6-1.4-5.6-1.4c1.4,5.4-11.4,18.4-20.8,16.8c-9.4-1.6-15.8,1.8-17,2.8c-1.2,1,0.8,1,0.8,1c2-2.8,8-1.8,8-1.8
			s-2.4,6.4-9.2,8.5c-6.8,2.1-13.2,10.1-16.2,17.5c-3,7.4-10.8,16-10.8,16C3.2,135.3,10,128.7,11.6,125.9z M65.4,115.2
			c4.9-0.7,7.2,3.6,7.7,3.6c0.5,0,1.1-0.8,1.1-0.8c-0.6-2,0-5,0-5c-4.6-5.8-15.6-0.6-22.4,2.1c-6.8,2.7-11.8,0-11.8,0
			C46.7,120.3,60.4,115.9,65.4,115.2z M71,119.9c-4.4,3.6-8.3-2.1-18.8,0.6c-12.5,3.2-22-3.6-22-3.6c2.4,6.5,14.7,10.2,26.8,7.3
			c12.1-2.8,16.1,0.9,16.1,0.9s0.1-1.3-0.6-3c-0.7-1.6,0-2.4,0-2.4L71,119.9z M52.9,137.1c-3.1-0.3-7-4.9-18.5-9
			c-11.6-4.1-15.6,0.4-15.6,0.4c1.1-0.6,12.2,1.8,13.6,2.4c1.4,0.6,8,2.6,6.1,8.4c-1.9,5.9-6.5,7.2-6.5,7.2h1.6
			c5.2-3.3,6.5-1.7,7.7-2.5c1.2-0.8,6.9,0.5,12.6,1c5.7,0.5,12.4-4.1,14.8-5.8c2.4-1.7,2.4-5.9,2.4-5.9c2.4-3,2.1-6,2.1-6
			C70,138,55.9,137.4,52.9,137.1z M71.3,130.2c0,0-2.6-2.9-11.6-0.6c-8.9,2.3-18.4-2.6-18.4-2.6s-3.3,0.2-4,1.7c0,0,2.3,0.1,2.5,0.8
			c0,0,0.6-0.8,2.9,0c2.3,0.7,9.6,4.2,14.2,3.9c4.7-0.3,7.2-0.4,11.3-2.9c0,0,1.1-0.5,1.7,0.1C70.5,131.4,69.9,130.7,71.3,130.2z
			 M70.3,144.7c-2.4,3.3-4.3,13-5.4,19.9c-1.1,6.8,4.6,17.1,7.7,21.9c3.2,4.8,3.2,12.8,3.2,12.8c1.6,4.5-0.2,6.7-0.2,6.7
			c-0.8-3.3-5.8-12.7-8.4-17.8c-2.5-5.1-4.6-14.5-5-18c-0.4-3.6-1.4-7.1-1.4-7.1c-0.3,29.9,0.8,25.8,10.5,44.4
			c9.7,18.6,5.7,32.2,5.3,33.1c-0.4,0.9,0.6,1.2,0.6,1.2c5.6-16.1-0.8-32.5-0.8-32.5s0-2.8,1-4.8c1-2,1.1-7,1.1-7
			c5.1,5.1,6.2,12.6,6.8,21.6c0.6,9,7.3,15.9,7.3,15.9c-2.9-3.1-3.6-10.3-3-22c0.6-11.7-8.5-27.4-12.1-31.8
			c-3.7-4.4-4.6-9.1-4.6-9.1c2.7-1,5,3.6,6.2,4.5c1.1,0.9,1.2,0,1.2,0c-3-3.8-4.6-24.4-4.4-27.5c0.2-3-3-15.5-3-15.5
			C73.3,135.4,72.8,141.5,70.3,144.7z M63.9,257.4c0,0,0.6-5.6,3.6-9.6c3-4,5.8-16.8,2.8-28.4c-3-11.6-9.3-20-16-23.6
			c0,0-4.3-4.2-4.4-7.3c0,0,6.7,4.5,9.3,9.1c0,0-5-13.8-0.8-28.9c4.2-15.1,4.7-20.4,3.3-24.8c0,0-0.9,4.8-3.7,7.3
			c-2.8,2.5-17.1,16.9-20.2,21.5c-3.1,4.6-16.2,23.7-9.8,45.8c0,0-0.5-5.6,1.3-8.8c1.8-3.1,3.5-7.5,3.8-10.4c0,0,4.4,11,12.7,20.7
			c8.3,9.7,14.2,18.9,15,24.5C61.6,250.1,62.2,255.7,63.9,257.4z M35.2,154.8c-4.5,4.4-8.8,13.2-10.2,17.3c-1.4,4.1-2.9,5.5-2.9,5.5
			h1c0,0,0.3-1.3,2.3-2.7c2-1.4,7.6-8.9,8.4-11.3c0.8-2.4,3.4-4.1,3-3.6c-0.4,0.5-0.7,2.1-0.8,4.2c-0.1,2.1-0.8,4.9-0.8,4.9
			c0.8-1.2,2.2-3.8,2.7-5.4c0.5-1.6,9.3-9.7,9.3-9.7s4.3-3.5,3.9-4.4c-0.4-0.9,1.2-3,1.2-3C42.3,154.5,39.7,150.4,35.2,154.8z
			 M23.5,188.2c-5.1,7.5-4.8,16.8-4.8,16.8l1.1-0.5c-0.7,1.9,0.7,4.4,0.7,4.4c-0.5-1.9,0.8-6.6,1.6-9.6c0.8-3,4.4-7.1,7.1-12.3
			c2.7-5.2,1-14.9,1-14.9C30,176.6,28.6,180.7,23.5,188.2z M118.1,185c-1.9,9.4,2.5,23.1,3.3,25.1c0.8,2,0,5.2,0,5.2
			c5.1-10.7,24-25.8,30-27.6c6-1.8,12.5,3.5,12.6,12.9c0.1,9.4,4.6,18.5,4.8,19.5c0.2,1,7.6,10.7,10.6,12.7c3,2,6.8,7.9,6.8,7.9
			c1.5-4.8-2.7-10.8-2.8-12.9c-0.1-2.1-9.2-11-9.2-11c4.5-0.1,11.2,7.9,11.2,7.9h0.8c-0.2-1-1.3-2.4-4.4-5.8
			c-3.1-3.4-2.7-11.8-3-18.3c-0.3-6.5-7.5-25.5-18.1-26.9c-10.6-1.3-18.6,7.9-25.4,13.9c-6.8,6-9.2,1-9.2,1c-6.2-13.2,2.4-24,2.4-24
			c2-1.6,6.8-7.8,6.8-7.8C119.9,167.8,120,175.6,118.1,185z M118.5,226.1c0,0,2.1-2,3.1-2.6c3.2-2,6.5-2.9,10.5-7.7
			c4.3-5.1,9.4-6.6,14.7-6.5c5.3,0.1,12.7,13.8,14.4,16.4c1.7,2.6,7.9,7.9,9.8,7.8c1.9-0.1,9,4.3,8.3,3.6c-0.7-0.7-1.1-2.1-1.1-2.1
			s-2.1-0.4-3.5-2.4c-1.4-2-3.4-2.8-3.4-2.8c-6.1-1.3-10.4-10.7-11.2-12.3c-0.8-1.6-0.3-8.8-0.9-13.1c-0.6-4.3-4.4-9.3-8.7-10.6
			c-4.3-1.3-10.7,6.9-11.3,7.7c-0.6,0.8-6.3,8.2-7.8,9.6c-1.2,1.2-9.8,9.3-9.8,9.3c-2.7,5-5.6,5.8-5.6,5.8L118.5,226.1z
			 M102.4,249.5c0,0,2.7-4.6,8.4-7.7c5.7-3,11.7-4.7,11.7-4.7s11.7-6.1,15.9-9.6c4.2-3.5,13.5-2.1,17.6,2.9c4.1,5,12.4,11.8,19.8,9
			c0,0-9-0.9-14.3-7.2c-5.3-6.3-13.8-17.7-20-15.9c-6.2,1.8-12.5,7.2-14.7,10.8c-2.3,3.6-6.8,6.6-9.2,7.5
			C115.2,235.5,101.7,239.9,102.4,249.5z M180.2,155.2c-2.9,5.4,3,18.6,6.4,27c3.4,8.4,0.9,15,0.9,15l1.1-0.5
			c0.3,2.6-1.4,5.9-1.4,5.9c2.3,0,3.3-4.5,3.3-4.5c5.3,9.9,1.8,8.7,3.5,23c1.7,14.3,15.8,23.9,15.8,23.9c-2.1-2-2.9-5.1-5.9-12.2
			c-3-7.1-1.2-18.5-0.6-26.7c0.6-8.3-9.8-30.6-15.2-39.6c-5.4-9-5.3-19.9-5.3-19.9S183.1,149.8,180.2,155.2z M205,205.2
			c0,0,1.4,2.9,1.4,7.2c0,4.4-0.5,26.7,9.5,33.6c0,0-3-4.7-3-6.3c0-1.6,0.8-1.5,0.8-1.5s-2.7-5-2.6-14.1c0.2-9.2-3.8-16.2-3.8-16.2
			S206.9,208,205,205.2z M191,168.1c0,0,7.7,8.9,9.9,16.8c2.3,8,7.1,14.6,7.1,14.6s-1.7-4.7-1.5-5.9c0.2-1.2,4.2,6.3,5.1,10.1
			c0.9,3.8,1.7,23.9,11.6,32h1.5c0,0-4.7-11-5.1-16.1c-0.5-5.1-5-19.5-9.8-30.6C205,177.9,191,168.1,191,168.1z M232.2,243.6
			c0,0-6.6-7-6-23.1c0.6-15.7-4.8-21-4.8-21h-1.1c0,0,1.1-16.2-8.1-23.9c0,0,3.9,2.9,4.7,2.9c0,0-2-2-2.1-3.7
			c-0.1-1.7-2.6-1.2-2.8-4.2c-0.2-3-4.2-7.3-6.3-9c-2.1-1.7-13-10.9-11.6-24.6l-0.8-0.8c0,0,2-9.5,0.8-12.8l-1.2,3.5
			c0,0-0.9,8.5-3.4,13c-2.5,4.5-1.9,12.2-0.9,13.7c1,1.5,1.4,3,1.6,3.9c0.2,0.9,0.9-0.5,0.9-0.5s-1.1-2.7,0-3.5
			c1.1-0.8,12.8,14,13.3,15.1c0.5,1.1,9.2,17.5,10.7,29.8c0,0,0.4,2.6,0.8,2.6c0.3,0,0,3.3,0,3.3s1.4-1.2,1.3-3.7
			c-0.1-2.5,4.3,6.2,3.9,8.1c-0.4,1.9,3,5.3,2.8,10.7c0,0,1.1,3.2,1.2,6.3C225.1,228.7,224.8,237.2,232.2,243.6z"/>
	</g>
	<g id="XMLID_246_">
		<path id="XMLID_267_" class="st5" d="M223.2,155.4L278.8,77h51.9l14.5,20.3l-51.3-0.1l-10.2,14.3H316L304.2,128H272l-41.6,58.4
			L223.2,155.4z M515.1,150.3l-8.9-13.8h-28.1l25.6-35.9H485l-25,35.3l8.2,14.4H515.1z M350.3,100.6h-18.7l-25,35.3l8.2,14.4
			L350.3,100.6z M411.7,110c-3.7,5.2-20.9,29.5-24,33.8c-3.1,4.3-10.7,6.5-10.7,6.5h-54.8l9.4-13l26-36.7h51.6
			C409.2,100.6,415.4,104.8,411.7,110z M388.8,116.1h-23.6l-14.5,20.3h21c0,0,3.2-0.8,4.4-2.4C377.2,132.5,388.8,116.1,388.8,116.1z
			 M670.7,110c-3.7,5.2-20.9,29.5-24,33.8c-3.1,4.3-10.7,6.5-10.7,6.5h-41.8c0,0-9.5-5-3.6-13c5.9-8,20.3-28.5,22.4-31.6
			c4-5.8,9.2-5.2,9.2-5.2h46C668.2,100.6,674.3,104.8,670.7,110z M646.1,118.4c1.9-2.7-1.4-2.2-1.4-2.2h-18.2c0,0-2.2-0.4-3.7,1.7
			c-1.5,2.1-10,14.1-11.4,16c-1.4,1.9,1.3,2.7,1.3,2.7h17.8c0,0,3.2-0.8,4.4-2.4C636.1,132.5,644.2,121.1,646.1,118.4z M811.3,110
			c-3.7,5.2-20.9,29.5-24,33.8c-3.1,4.3-10.7,6.5-10.7,6.5h-41.8c0,0-9.5-5-3.6-13c5.9-8,20.3-28.5,22.4-31.6c4-5.8,9.2-5.2,9.2-5.2
			h46C808.8,100.6,814.9,104.8,811.3,110z M786.7,118.4c1.9-2.7-1.4-2.2-1.4-2.2h-18.2c0,0-2.2-0.4-3.7,1.7
			c-1.5,2.1-10,14.1-11.4,16c-1.4,1.9,1.3,2.7,1.3,2.7h17.8c0,0,3.2-0.8,4.4-2.4C776.8,132.5,784.8,121.1,786.7,118.4z M426.4,100.8
			l-26,36.8l9.3,12.4H462l-8.4-13.6h-34.2l3.7-5.2h25.3l8.3-11.5h-25.4l3.7-5.2h29.7l10-13.8H426.4z M615,90l-22,31l-19.7,7.5l8,8.9
			l-34.2,48.1l-14-21.5l20.3-28.5L541.8,124l-18.2,25.4l-14-21.6L545.7,77h70.6C621.7,81.3,615,90,615,90z M581.5,96.1h-19.9
			l-8.7,12.2l4.8,8.2l14-6.4L581.5,96.1z M697.9,110.2l6.9-9.7h-18.7l-35.5,49.7h18.7l16.9-23.7l4.8,12.2l18.4-9.1l-13.6,19
			l9.8,12.4l43-60.5h-18.6l-10.6,15l-17.2,7.3L697.9,110.2z"/>
	</g>
</g>
<g id="Layer_6" class="st0">
	<rect id="XMLID_6_" x="249.2" y="194.8" class="st6" width="522.9" height="41.5"/>
	<text id="XMLID_7_" transform="matrix(1 0 0 1 249.1905 213.1733)" class="st7 st8 st9">WEB DEVELOPER AND GRAPHIC ARTIST</text>
</g>
</svg>
